<svg width="24" height="24" viewBox="0 0 24 24" fill="none" xmlns="http://www.w3.org/2000/svg">
<circle cx="12" cy="12" r="12" fill="url(#paint0_linear_62_6433)"/>
<g clip-path="url(#clip0_62_6433)">
<path d="M17.25 3.75L16.305 5.8125L14.25 6.75L16.305 7.695L17.25 9.75L18.1875 7.695L20.25 6.75L18.1875 5.8125M9.75 6L7.875 10.125L3.75 12L7.875 13.875L9.75 18L11.625 13.875L15.75 12L11.625 10.125M17.25 14.25L16.305 16.305L14.25 17.25L16.305 18.1875L17.25 20.25L18.1875 18.1875L20.25 17.25L18.1875 16.305" fill="#FFFEFF"/>
</g>
<defs>
<linearGradient id="paint0_linear_62_6433" x1="0" y1="0" x2="28.0503" y2="6.48748" gradientUnits="userSpaceOnUse">
<stop stop-color="#23607E"/>
<stop offset="0.5" stop-color="#3D2CA6"/>
<stop offset="1" stop-color="#981B62"/>
</linearGradient>
<clipPath id="clip0_62_6433">
<rect width="18" height="18" fill="white" transform="translate(3 3)"/>
</clipPath>
</defs>
</svg>
