<svg width="17" height="20" viewBox="0 0 17 20" fill="none" xmlns="http://www.w3.org/2000/svg">
<path d="M2.03075 15.5057C1.37825 14.7442 0.876667 13.8917 0.526 12.948C0.175333 12.0045 0 11.0218 0 10C0 7.58967 0.887833 5.57042 2.6635 3.94225C4.43917 2.31408 6.55133 1.5 9 1.5V0L12.673 2.75L9 5.5V4C7.23967 4 5.71625 4.57275 4.42975 5.71825C3.14325 6.86375 2.5 8.291 2.5 10C2.5 10.7538 2.633 11.4705 2.899 12.15C3.165 12.8295 3.54158 13.4449 4.02875 13.9962L2.03075 15.5057ZM8 20L4.327 17.25L8 14.5V16C9.76033 16 11.2838 15.4273 12.5703 14.2818C13.8568 13.1363 14.5 11.709 14.5 10C14.5 9.24617 14.367 8.52633 14.101 7.8405C13.835 7.1545 13.4584 6.53583 12.9712 5.9845L14.9693 4.475C15.6218 5.2365 16.1233 6.08908 16.474 7.03275C16.8247 7.97625 17 8.96533 17 10C17 12.4103 16.1122 14.4296 14.3365 16.0578C12.5608 17.6859 10.4487 18.5 8 18.5V20Z" fill="#A02CE9"/>
</svg>
